<?xml version="1.0" encoding="UTF-8"?><svg xmlns="http://www.w3.org/2000/svg" viewBox="0 0 1512.027167517937414 884.840527086387738"><defs><style>.cls-1{fill:#c8ffa5;stroke-width:0px;}</style></defs><path class="cls-1" d="m650.106223682063501,394.048696924681281c-27.8270263671875-9.102996826171875-40.0260009765625-37.240997314453125-27.246002197265625-62.8499755859375,12.779998779296875-25.608001708984375,45.696990966796875-38.989013671875,73.52398681640625-29.886016845703125,27.826995849609375,9.10198974609375,40.024993896484375,37.240997314453125,27.24700927734375,62.850006103515625-12.779998779296875,25.608001708984375-45.697998046875,38.989013671875-73.524993896484375,29.885986328125m134.9337158203125-79.412200927734375c5.77197265625-15.814971923828125-6.03704833984375-47.582977294921875-26.37603759765625-70.957000732421875-20.3389892578125-23.373992919921875-41.504974365234375-29.501983642578125-47.2769775390625-13.686981201171875-5.772003173828125,15.813995361328125,6.037017822265625,47.5830078125,26.3759765625,70.957000732421875,20.3389892578125,23.373992919921875,41.5050048828125,29.501983642578125,47.27703857421875,13.686981201171875m478.390136718748181,345.540899753570557v-69.268995761871338c0-21.860000610351562-8.973022460939319-32.447006225585938-27.614990234369543-32.447006225585938-20.02001953125,0-32.445983886720569,13.576004028320312-32.445983886720569,37.510002136230469v64.205999851226807h-23.934020996099207v-119.664999485015869h23.934020996099207v36.127998352050781l6.442016601560681-27.154998779296875c5.983947753909888-6.672996520996094,15.41796875-12.886001586914062,32.448974609380457-12.886001586914062,28.993957519529431,0,45.103942871090112,18.638999938964844,45.103942871090112,50.859001159667969v72.719000339508057h-23.933959960941138Zm-105.482971191398974-60.063997745513916c0,37.511999130249023-28.075988769536707,63.516997814178467-64.666992187505457,63.516997814178467-36.36004638671875,0-64.2030029296875-26.004998683929443-64.2030029296875-63.516997814178467,0-37.508998870849609,27.84295654296875-63.514003753662109,64.2030029296875-63.514003753662109,36.59100341796875,0,64.666992187505457,26.0050048828125,64.666992187505457,63.514003753662109m-24.854980468755457,0c0-25.312999725341797-16.5670166015625-41.652004241943359-39.81201171875-41.652004241943359-23.01300048828125,0-39.58001708984375,16.339004516601562-39.58001708984375,41.652004241943359,0,25.314998626708984,17.02801513671875,41.421998977661133,39.58001708984375,41.421998977661133,23.2449951171875,0,39.81201171875-16.107000350952148,39.81201171875-41.421998977661133m-140.6090087890625-23.021999359130859c-5.41302490234375-11.925003051757812-17.9530029296875-18.6300048828125-31.61199951171875-18.6300048828125-23.24102783203125,0-39.123046875,16.108001708984375-39.123046875,41.652004241943359,0,25.543998718261719,15.18902587890625,41.421998977661133,39.123046875,41.421998977661133,14.094970703125,0,26.427978515625-7.572000503540039,31.7569580078125-18.25200080871582l20.28302001953125,12.185001373291016c-9.30999755859375,16.508998870849609-29.01202392578125,28.161998271942139-52.03997802734375,28.161998271942139-37.74102783203125,0-63.74603271484375-25.543998241424561-63.74603271484375-63.516997814178467,0-37.281002044677734,26.926025390625-63.514003753662109,63.74603271484375-63.514003753662109,23.23797607421875,0,43.14697265625,11.650001525878906,52.135986328125,28.159004211425781l-20.52398681640625,12.333000183105469m-145.7530517578125-36.579002380371094h23.93402099609375v119.664999485015869h-23.93402099609375v-119.664999485015869Zm-60.52197265625,82.613002777099609c0,15.420997619628906,5.9840087890625,18.180997848510742,18.4100341796875,18.180997848510742,3.68499755859375,0,9.89697265625-.688999176025391,13.5789794921875-1.610000610351562v21.169999599456787c-3.6820068359375,1.381999969482422-13.34698486328125,2.302999973297119-17.02899169921875,2.302999973297119-25.31500244140625,0-38.8909912109375-10.354000091552734-38.8909912109375-36.819997787475586v-64.895000457763672h-21.40203857421875v-20.942001342773438h21.40203857421875v-26.696990966796875l23.93096923828125-18.177993774414062v44.874984741210938h34.05902099609375v20.942001342773438h-34.05902099609375v61.671001434326172Zm-138.531951904296875-50.627002716064453c0,26.236000061035156,77.09197998046875,6.904998779296875,77.09197998046875,54.080001831054688,0,24.16199779510498-20.941009521484375,37.051997661590576-50.626983642578125,37.051997661590576-28.388000488279431,0-47.843017578125-12.484999179840088-53.641021728515625-31.738997936248779l22.78302001953125-9.671001434326172c2.79998779296875,14.836000442504883,14.610992431640625,22.079000473022461,30.858001708984375,22.079000473022461,14.035980224609375,0,24.85400390625-5.062999725341797,24.85400390625-16.110998153686523,0-26.694000244140625-75.9420166015625-6.212001800537109-75.9420166015625-54.307998657226562,0-21.631004333496094,22.32000732421875-37.281005859375,48.785003662109375-37.281005859375,26.093994140625,0,44.7239990234375,11.752006530761719,50.1820068359375,29.995002746582031l-22.218017578125,8.305000305175781c-2.868988037109375-12.140998840332031-12.69097900390625-19.200996398925781-27.9639892578125-19.200996398925781-15.186004638671875,0-24.1619873046875,7.133995056152344-24.1619873046875,16.799995422363281m-80.03900146484375-31.986000061035156h23.933990478515625v119.664999485015869h-23.933990478515625v-119.664999485015869Zm-58.451019287109375-49.47698974609375h23.933990478515625v169.141989231109619h-23.933990478515625v-169.141989231109619Zm-24.897003173828125,109.077991485595703c0,37.511999130249023-28.07598876953125,63.516997814178467-64.663986206054688,63.516997814178467-36.363006591796875,0-64.206008911132812-26.004998683929443-64.206008911132812-63.516997814178467,0-37.508998870849609,27.843002319335938-63.514003753662109,64.206008911132812-63.514003753662109,36.587997436523438,0,64.663986206054688,26.0050048828125,64.663986206054688,63.514003753662109m-24.854995727539062,0c0-25.312999725341797-16.5679931640625-41.652004241943359-39.808990478515625-41.652004241943359-23.01300048828125,0-39.583999633789062,16.339004516601562-39.583999633789062,41.652004241943359,0,25.314998626708984,17.02899169921875,41.421998977661133,39.583999633789062,41.421998977661133,23.240997314453125,0,39.808990478515625-16.107000350952148,39.808990478515625-41.421998977661133m-150.772987365722656-9.204998016357422c0-21.860000610351562-8.976005554199219-32.447006225585938-28.076000213623047-32.447006225585938-19.562000274658203,0-31.987998962402344,13.576004028320312-31.987998962402344,37.510002136230469v64.205999851226807h-23.934001922607422v-169.141989231109619h23.934001922607422v84.915992736816406l6.444000244140625-25.774002075195312c5.981998443603516-7.364997863769531,14.958000183105469-13.5780029296875,31.985996246337891-13.5780029296875,29.457000732421875,0,45.568000793457031,18.638999938964844,45.568000793457031,50.859001159667969v72.719000339508057h-23.933998107910156v-69.268995761871338Z"/></svg>